<?xml version="1.0" encoding="utf-8"?>
<!-- Generator: Adobe Illustrator 13.0.0, SVG Export Plug-In . SVG Version: 6.00 Build 14948)  -->
<!DOCTYPE svg PUBLIC "-//W3C//DTD SVG 1.1//EN" "http://www.w3.org/Graphics/SVG/1.1/DTD/svg11.dtd">
<svg version="1.1" id="svg1359" xmlns="http://www.w3.org/2000/svg" xmlns:xlink="http://www.w3.org/1999/xlink" x="0px" y="0px"
	 width="946.686px" height="973.155px" viewBox="486.658 53.422 946.686 973.155"
	 enable-background="new 486.658 53.422 946.686 973.155" xml:space="preserve">
<path id="path1249" fill="#ECECEC" d="M509.75,400.025v399.928l577.244-333.271V66.752L509.75,400.025z"/>
<path id="path1251" fill="#FFFFFF" d="M532.839,759.959V413.356l531.065-306.609V453.35L532.839,759.959z"/>
<path id="path1253" fill="#E6E6E6" d="M509.75,400.025l-23.092-13.331l577.246-333.271l23.09,13.331L509.75,400.025z"/>
<path id="path1255" fill="#CCCCCC" d="M509.75,799.951l-23.092-13.331V386.695l23.092,13.331V799.951z"/>
<path id="path1257" fill="#ECECEC" d="M509.75,799.951l346.348,199.965l577.246-333.272l-346.35-199.964L509.75,799.951z"/>
<path id="path1259" fill="#ECECEC" d="M856.096,999.916v26.661l577.246-333.272v-26.661L856.096,999.916z"/>
<path id="path1261" fill="#CCCCCC" d="M486.659,813.282V786.62l369.438,213.296v26.661L486.659,813.282z"/>
<path id="path1263" fill="#F9F9F9" d="M1294.803,613.32L763.736,919.93L555.927,799.951l531.065-306.61L1294.803,613.32z"/>
<path id="path1265" fill="#CCCCCC" d="M1179.354,786.62l-115.45,66.655l-69.269-39.993l115.448-66.653L1179.354,786.62z"/>
<path id="path1267" fill="#414141" d="M509.75,400.025v399.928l577.244-333.271V66.752L509.75,400.025z"/>
<path id="path1269" fill="#E6E6E6" d="M509.75,400.025l-23.092-13.331l577.246-333.271l23.09,13.331L509.75,400.025z"/>
<path id="path1271" fill="#CCCCCC" d="M509.75,799.951l-23.092-13.331V386.695l23.092,13.331V799.951z"/>
<path id="path1273" fill="#ECECEC" d="M509.75,799.951l346.348,199.965l577.246-333.272l-346.35-199.964L509.75,799.951z"/>
<path id="path1275" fill="#E5E5E5" d="M856.096,999.916v26.661l577.246-333.272v-26.661L856.096,999.916z"/>
<path id="path1277" fill="#CCCCCC" d="M486.659,813.282V786.62l369.438,213.296v26.661L486.659,813.282z"/>
<path id="path1279" fill="#CCCCCC" d="M1294.277,613.319L763.739,919.62L556.463,799.949l530.533-306.303L1294.277,613.319z"/>
<path id="path1281" fill="#CCCCCC" d="M1179.354,786.62l-115.45,66.655l-69.269-39.993l115.448-66.653L1179.354,786.62z"/>
<path id="path2057" fill="#FFFFFF" d="M532.839,759.96V413.356l531.065-306.609V453.35L532.839,759.96z"/>
<g id="g2338" transform="matrix(0.57931775,0.33446926,0,0.57931775,-448.68222,1291.9241)">
	<g id="g1635" transform="matrix(0.44216321,0,0,0.44216321,-1142.1181,1409.6158)">
		<g id="g1625" transform="matrix(1.3113808,0,0,1.3113808,-64.448415,-158.9384)">
			<path id="path1621" fill="#393366" stroke="#5599FF" stroke-width="10.088" stroke-linecap="round" stroke-linejoin="round" d="
				M5856.632-7241.836l109.257-38.261"/>
			<path id="path1623" fill="#393366" stroke="#5599FF" stroke-width="10.088" stroke-linecap="round" stroke-linejoin="round" d="
				M5856.632-7066.036l109.257-214.064"/>
		</g>
		<g id="g1631" transform="matrix(-1.3113808,0,0,1.3113808,375.48291,-158.9384)">
			<path id="path1627" fill="#393366" stroke="#5599FF" stroke-width="10.088" stroke-linecap="round" stroke-linejoin="round" d="
				M-5270.418-6952.304l109.26,214.063"/>
			<path id="path1629" fill="#393366" stroke="#5599FF" stroke-width="10.088" stroke-linecap="round" stroke-linejoin="round" d="
				M-5270.418-6776.504l109.26,38.263"/>
		</g>
		<path id="path1633" fill="#393366" stroke="#5599FF" stroke-width="13.9864" stroke-linecap="round" d="M7403.879-9495.424
			l95.078,289.582"/>
	</g>
	<g id="g1647" transform="matrix(0.57984434,0,0,0.57984434,-1170.6148,1339.3391)">
		<path id="path1643" fill="#393366" stroke="#5599FF" stroke-width="10.088" stroke-linecap="round" stroke-linejoin="round" d="
			M5856.636-7241.839l109.257-38.264"/>
		<path id="path1645" fill="#393366" stroke="#5599FF" stroke-width="10.088" stroke-linecap="round" stroke-linejoin="round" d="
			M5856.636-7066.042l109.257-214.062"/>
	</g>
	<g id="g1653" transform="matrix(-0.57984434,0,0,0.57984434,-976.09337,1339.3391)">
		<path id="path1649" fill="#393366" stroke="#5599FF" stroke-width="10.088" stroke-linecap="round" stroke-linejoin="round" d="
			M-5270.419-6952.309l109.261,214.06"/>
		<path id="path1651" fill="#393366" stroke="#5599FF" stroke-width="10.088" stroke-linecap="round" stroke-linejoin="round" d="
			M-5270.419-6776.509l109.261,38.26"/>
	</g>
	<path id="path1655" fill="#5599FF" d="M2128.704-2797.051c-6.257,8.805-10.05,19.541-8.467,23.972l42.04,128.046
		c0.032,0.115,0.069,0.226,0.108,0.334c1.622,4.375,8,0.762,14.249-8.075c6.247-8.836,10-19.547,8.378-23.923l-42.04-128.046
		c-1.21-4.025-6.072-2.232-11.626,4.287C2130.452-2799.41,2129.567-2798.269,2128.704-2797.051z"/>
</g>
</svg>
