<?xml version="1.0" encoding="utf-8"?>
<!-- Generator: Adobe Illustrator 22.1.0, SVG Export Plug-In . SVG Version: 6.00 Build 0)  -->
<svg version="1.1" id="Laag_1" xmlns="http://www.w3.org/2000/svg" xmlns:xlink="http://www.w3.org/1999/xlink" x="0px" y="0px"
	 viewBox="0 0 188.5 191.1" style="enable-background:new 0 0 188.5 191.1;" xml:space="preserve">
<style type="text/css">
	.st0{fill:#020203;}
	.st1{fill:#FFFFFF;}
</style>
<path class="st0" d="M94.3,164.3c-38.8,0-62.8-33.3-62.8-68.7c0-35.4,24-68.7,62.8-68.7c38.8,0,62.8,33.3,62.8,68.7
	C157,131,133.1,164.3,94.3,164.3 M94.3,191.1c58.6,0,94.3-46.1,94.3-95.6S152.9,0,94.3,0S0,46.1,0,95.6S35.7,191.1,94.3,191.1"/>
<path class="st0" d="M67.8,95.2c18.2,0,33-14.8,33-33c0-18.2-14.8-33-33-33c-18.2,0-33,14.8-33,33C34.8,80.5,49.6,95.2,67.8,95.2"/>
<path class="st1" d="M82.3,67.8c5.2,0,9.5-4.2,9.5-9.5s-4.2-9.5-9.5-9.5c-5.2,0-9.5,4.2-9.5,9.5S77,67.8,82.3,67.8"/>
</svg>
