<svg enable-background="new 0 0 400.8 29.6" viewBox="0 0 400.8 29.6" xmlns="http://www.w3.org/2000/svg"><g fill="#020203"><path d="m400.8 4.8v-4.1h-16.3v28.2h4.6v-10.9h11.7v-4.2h-11.7v-9zm-29.7 16.4h-7.8l3.9-12.8zm7.5 7.7-9.8-28.2h-3.3l-9.8 28.2h4.9l1.2-3.6h10.6l1.2 3.6zm-35-7.7h-7.8l3.9-12.8zm7.5 7.7-9.8-28.2h-3.3l-9.8 28.2h4.9l1.2-3.6h10.7l1.2 3.6zm-37.8-12.6h-5.5v-11.5h5.5c3.2 0 5.3 2.6 5.3 5.7s-2.1 5.8-5.3 5.8m-10.2 12.6h4.6v-8.5h4.6l5.2 8.5h5.3l-5.6-9.2c3.7-1.5 6-5.1 6-9.2 0-5.3-3.9-9.9-10-9.9h-10.1zm-19.8-10h5.4c-.6 3.5-3.4 6.5-8.2 6.5-7 0-10.4-5.1-10.4-10.6s3.7-10.6 9.8-10.6c3.9 0 6.9 2.2 7.3 5h4.7c-.4-5-5.4-9.2-12-9.2-8.9 0-14.5 7.1-14.5 14.8s5.3 14.8 14.5 14.8c7.8 0 12.5-4.4 13.8-10.7h3.1v-4.2h-13.4v4.2zm-26.9 10h5.8l-11.9-14.1 11.9-14.1h-5.8l-10.5 12.4v-12.4h-4.6v28.2h4.6v-12.4zm-24-28.2h-4.6v19.1c0 3.3-1.5 5.7-4.6 5.7-3 0-4.5-2.4-4.5-5.7h-4.7c0 5.5 3.3 9.9 9.2 9.9s9.2-4.4 9.2-9.8zm-29.2 28.2h4.8v-28.2h-4.8zm-22.1-24.1c6.3 0 9.9 4.9 9.9 10 0 5-3.6 10-9.9 10h-4.5v-20zm-9.2-4.1v28.2h9.2c9.4 0 14.6-7 14.6-14.1s-5.3-14.1-14.6-14.1h-9.2zm-35.7 24.8c-6 0-9.7-5.2-9.7-10.6 0-5.5 3.7-10.6 9.7-10.6s9.7 5.2 9.7 10.6-3.7 10.6-9.7 10.6m0 4.1c9.1 0 14.6-7.1 14.6-14.8s-5.6-14.8-14.6-14.8c-9.1 0-14.6 7.1-14.6 14.8s5.5 14.8 14.6 14.8m-26.9-.7h4.8v-28.2h-4.8zm-22.1-24.1c6.3 0 9.9 4.9 9.9 10 0 5-3.6 10-9.9 10h-4.5v-20zm-9.2-4.1v28.2h9.2c9.4 0 14.6-7 14.6-14.1s-5.3-14.1-14.6-14.1h-9.2zm-29.2 18.8c0 5.5 4 10.1 10.1 10.1 6.2 0 10.2-4.6 10.2-10.1v-18.8h-4.6v18.8c0 3.2-2.2 6-5.6 6-3.3 0-5.5-2.7-5.5-6v-18.8h-4.6zm-17.6 9.4h4.6v-24.1h7v-4.1h-18.6v4.2h7zm-31.2-9.2c0 6.3 4.6 9.9 9.7 9.9 5.2 0 9.7-3.1 9.7-8.9 0-5.4-5.3-7.3-9.7-8.8-2.1-.8-4.1-1.9-4.1-4.2 0-2.4 1.9-3.6 4.2-3.6 2.6 0 4.2 1.9 4.2 4.7h4.6c0-5.2-3.9-8.8-9-8.8-4.6 0-8.6 3.1-8.6 7.7 0 5.6 4.2 7.2 9.3 9 1.9.7 4.5 1.6 4.5 4.5 0 2.5-2.1 4.2-4.6 4.2-3.2 0-5.5-2.1-5.5-5.8h-4.7z"/><path d="m135.8 9c0 .8-.7 1.5-1.5 1.5s-1.5-.7-1.5-1.5.7-1.5 1.5-1.5c.8.1 1.5.7 1.5 1.5m1.4.6c0-2.8-2.3-5.1-5.1-5.1s-5.1 2.3-5.1 5.1 2.3 5.1 5.1 5.1 5.1-2.2 5.1-5.1"/></g></svg>